<svg width="119" height="66" viewBox="0 0 119 66" fill="none" xmlns="http://www.w3.org/2000/svg">
<g clip-path="url(#clip0)">
<path d="M53.681 29.633C52.762 30.199 52.762 30.977 52.762 31.473V40.738C52.762 41.234 52.762 42.011 53.681 42.577H49.932C50.85 42.011 50.85 41.233 50.85 40.737V31.542C50.85 31.048 50.85 30.27 49.932 29.704H53.681V29.633ZM55.095 42.576C55.661 42.222 55.803 41.727 55.803 41.303V34.939C55.803 34.443 55.661 34.02 55.095 33.666H56.581C57.005 33.666 57.288 33.594 57.641 33.383V34.798C58.419 33.525 59.621 33.313 60.541 33.313C61.319 33.313 62.946 33.455 63.724 35.081C64.644 33.595 66.058 33.313 67.048 33.313C70.373 33.313 70.584 35.717 70.584 37.061V41.375C70.584 41.87 70.725 42.294 71.292 42.648H68.109C68.675 42.294 68.816 41.8 68.816 41.375V37.485C68.816 36.354 68.604 34.726 66.553 34.726C64.29 34.726 64.148 36.495 64.148 37.345V41.375C64.148 41.87 64.29 42.294 64.855 42.648H61.672C62.239 42.294 62.379 41.8 62.379 41.375V37.345C62.379 36.707 62.309 34.726 60.046 34.726C57.713 34.726 57.713 36.707 57.713 36.989V41.374C57.713 41.869 57.853 42.293 58.42 42.647H55.096V42.576H55.095ZM71.716 46.677C72.281 46.324 72.423 45.9 72.423 45.405V34.938C72.423 34.442 72.282 34.019 71.716 33.665H73.129C73.553 33.665 73.837 33.593 74.191 33.382V34.867C75.252 33.593 76.595 33.311 77.656 33.311C80.98 33.311 82.535 35.432 82.535 37.837C82.535 40.524 80.909 42.929 77.514 42.929C77.019 42.929 76.453 42.858 75.958 42.717L74.755 41.091C75.463 41.373 76.1 41.515 77.089 41.515C77.584 41.515 80.484 41.515 80.484 37.978C80.484 35.786 78.928 34.796 77.231 34.796C75.674 34.796 74.26 35.503 74.26 37.412V45.405C74.26 45.9 74.402 46.324 75.038 46.677H71.716ZM85.577 36.635C85.86 35.433 86.921 34.656 88.407 34.656C89.892 34.656 90.882 35.433 90.952 36.635H85.577ZM93.216 37.838C93.287 35.858 92.155 33.241 88.548 33.241C85.365 33.241 83.385 35.221 83.385 37.979C83.385 41.091 85.719 42.859 89.114 42.859C90.176 42.859 91.025 42.789 92.085 42.435L93.357 40.526C92.226 41.162 91.024 41.445 89.539 41.445C86.639 41.445 85.366 39.748 85.436 37.838H93.216ZM93.711 42.576C94.276 42.222 94.419 41.727 94.419 41.303V34.939C94.419 34.443 94.276 34.02 93.711 33.666H95.125C95.55 33.666 95.833 33.594 96.116 33.383V34.868C96.54 34.16 97.46 33.312 98.732 33.312C98.943 33.312 99.157 33.312 99.44 33.383V35.221C99.158 35.009 98.804 34.939 98.379 34.939C97.388 34.939 96.257 35.433 96.257 37.555V41.374C96.257 41.869 96.399 42.293 97.035 42.647H93.711V42.576ZM102.48 33.665C102.904 33.665 103.187 33.593 103.541 33.382V41.373C103.541 41.868 103.683 42.292 104.249 42.646H101.067C101.632 42.292 101.774 41.798 101.774 41.373V35.008C101.774 34.512 101.633 34.088 101.067 33.735H102.481V33.665H102.48ZM102.48 29.987C103.117 29.987 103.753 30.553 103.753 31.19C103.753 31.826 103.187 32.393 102.48 32.393C101.844 32.393 101.207 31.827 101.207 31.19C101.207 30.553 101.845 29.987 102.48 29.987ZM107.36 33.453C107.926 33.382 108.492 33.311 109.128 33.311C112.311 33.311 112.665 35.291 112.665 36.494V40.101C112.665 41.161 113.301 41.373 114.08 41.444C114.222 41.444 114.364 41.444 114.434 41.444L113.514 42.716C113.443 42.716 113.302 42.716 113.231 42.716C112.595 42.716 110.826 42.646 110.826 40.665V37.765C110.26 38.19 109.766 38.19 108.776 38.402C107.927 38.614 106.796 38.898 106.796 40.028C106.796 40.453 106.937 41.584 108.776 41.584C109.272 41.584 109.907 41.514 110.473 41.372L109.2 42.857C108.775 43 108.421 43 107.927 43C106.017 43 104.814 41.798 104.814 40.101C104.814 38.12 106.653 37.766 108.139 37.412C109.836 37.059 110.755 36.918 110.755 35.998C110.755 35.291 110.119 34.867 108.987 34.867C108.562 34.867 107.36 34.938 106.156 35.574L107.36 33.453ZM116.272 29.633C116.696 29.633 116.98 29.563 117.333 29.35V41.302C117.333 41.798 117.475 42.221 118.041 42.575H114.858C115.424 42.221 115.566 41.726 115.566 41.302V30.977C115.566 30.483 115.424 30.059 114.858 29.705H116.273L116.272 29.633ZM52.832 59.621C52.832 60.186 52.832 60.894 53.681 61.53H50.003C50.922 60.894 50.922 60.115 50.922 59.621V49.72H48.658C48.234 49.72 47.386 49.791 46.678 50.497L47.456 48.092C47.881 48.162 48.163 48.162 48.658 48.162H56.014C56.438 48.162 56.862 48.092 57.144 48.092L56.508 50.284C56.155 49.647 55.448 49.647 55.024 49.647H52.901V59.62L52.832 59.621ZM60.116 53.327C62.379 53.327 63.441 55.024 63.441 56.792C63.441 58.913 62.096 60.257 60.188 60.257C57.925 60.257 56.864 58.56 56.864 56.792C56.863 54.741 58.207 53.327 60.116 53.327ZM60.258 51.911C57.287 51.911 54.883 53.963 54.883 56.864C54.883 59.409 56.792 61.813 60.046 61.813C63.087 61.813 65.421 59.763 65.421 56.864C65.421 54.316 63.511 51.911 60.258 51.911ZM67.684 48.235C68.108 48.235 68.392 48.163 68.674 47.952V60.116C69.24 60.257 69.947 60.328 70.584 60.328C72.847 60.328 74.191 58.984 74.191 56.863C74.191 54.812 72.988 53.397 71.149 53.397C70.512 53.397 69.806 53.539 69.24 53.893L70.088 52.478C70.23 52.266 70.512 51.983 71.786 51.983C74.403 51.983 76.171 53.821 76.171 56.651C76.171 61.813 70.797 61.885 70.088 61.885C68.674 61.885 67.259 61.743 66.269 61.531C66.764 61.177 66.905 60.753 66.905 60.258V49.508C66.905 49.013 66.763 48.589 66.269 48.164H67.684V48.235ZM80.273 52.054C80.839 51.983 81.405 51.911 81.971 51.911C85.152 51.911 85.436 53.963 85.436 55.165V58.843C85.436 59.974 86.072 60.187 86.779 60.187C86.921 60.187 86.991 60.187 87.134 60.187L86.214 61.459C86.143 61.459 86.001 61.459 85.931 61.459C85.294 61.459 83.597 61.388 83.597 59.337V56.367C83.031 56.791 82.536 56.791 81.616 57.073C80.768 57.286 79.707 57.568 79.707 58.77C79.707 59.195 79.848 60.398 81.616 60.398C82.112 60.398 82.677 60.326 83.244 60.186L82.04 61.671C81.615 61.812 81.262 61.812 80.838 61.812C79 61.812 77.726 60.61 77.726 58.843C77.726 56.791 79.565 56.437 80.98 56.083C82.606 55.73 83.526 55.518 83.526 54.599C83.526 53.891 82.89 53.396 81.758 53.396C81.333 53.396 80.131 53.467 78.999 54.104L80.273 52.054ZM95.69 54.245C95.195 53.821 94.347 53.327 93.145 53.327C91.448 53.327 89.679 54.317 89.679 56.651C89.679 58.772 91.094 60.328 93.781 60.328C95.62 60.328 96.469 59.763 96.892 59.48C95.762 61.601 95.408 61.813 93.286 61.813C91.942 61.813 90.244 61.672 88.9 60.257C88.193 59.551 87.628 58.419 87.628 56.933C87.628 55.45 88.193 54.245 89.042 53.397C90.244 52.196 91.729 51.912 93.355 51.912C94.699 51.912 94.063 52.055 95.619 52.196V54.246L95.69 54.245ZM105.309 54.245C104.815 53.821 103.966 53.327 102.764 53.327C101.067 53.327 99.298 54.317 99.298 56.651C99.298 58.772 100.713 60.328 103.4 60.328C105.239 60.328 106.088 59.763 106.512 59.48C105.381 61.601 105.027 61.813 102.905 61.813C101.561 61.813 99.864 61.672 98.52 60.257C97.813 59.551 97.247 58.419 97.247 56.933C97.247 55.45 97.813 54.245 98.662 53.397C99.864 52.196 101.349 51.912 102.976 51.912C104.319 51.912 103.683 52.055 105.239 52.196V54.246L105.309 54.245ZM112.382 53.327C114.645 53.327 115.705 55.024 115.705 56.792C115.705 58.913 114.362 60.257 112.452 60.257C110.19 60.257 109.127 58.56 109.127 56.792C109.128 54.741 110.402 53.327 112.382 53.327ZM112.453 51.911C109.483 51.911 107.077 53.963 107.077 56.864C107.077 59.409 108.988 61.813 112.241 61.813C115.282 61.813 117.616 59.763 117.616 56.864C117.686 54.316 115.777 51.911 112.453 51.911ZM20.865 10.608C27.725 10.608 39.96 17.752 39.96 17.752C39.96 17.752 36.283 18.035 34.303 18.671C32.322 19.308 31.403 22.915 31.403 22.915C31.403 22.915 22.35 57.853 21.431 61.176C20.511 64.572 18.672 65.35 18.672 65.35C18.672 65.35 25.603 65.35 30.907 65.35C36.14 65.35 36.919 61.601 36.919 61.601L47.457 21.713C56.652 25.32 62.805 22.349 71.08 14.64C64.997 16.692 61.745 14.711 61.745 14.711C51.205 12.094 47.386 0 29.775 0C12.236 0 6.79001 14.923 6.79001 14.923C6.79001 14.923 12.377 10.608 20.865 10.608ZM32.038 17.893C32.038 17.893 25.815 17.893 21.783 17.893C17.751 17.893 15.559 18.743 15.559 18.743C13.579 19.378 12.659 22.986 12.659 22.986C12.659 22.986 3.678 57.854 2.759 61.177C1.768 64.573 0 65.351 0 65.351C0 65.351 6.93099 65.351 12.235 65.351C17.468 65.351 18.246 61.602 18.246 61.602L28.785 21.714C29.634 18.812 32.038 17.893 32.038 17.893Z" fill="#AB0534"/>
</g>
<defs>
<clipPath id="clip0">
<rect width="118.04" height="65.35" fill="white"/>
</clipPath>
</defs>
</svg>
